<mxfile host="65bd71144e">
    <diagram id="qXpzkaD400MMglM4VPPH" name="第 1 页">
        <mxGraphModel dx="978" dy="636" grid="1" gridSize="10" guides="1" tooltips="1" connect="1" arrows="1" fold="1" page="1" pageScale="1" pageWidth="827" pageHeight="1169" math="0" shadow="0">
            <root>
                <mxCell id="0"/>
                <mxCell id="1" parent="0"/>
                <mxCell id="2" value="&lt;font style=&quot;font-size: 18px;&quot;&gt;后台管理系统&lt;/font&gt;" style="rounded=1;whiteSpace=wrap;html=1;arcSize=13;fillColor=#d80073;fontColor=#ffffff;strokeColor=#A50040;" vertex="1" parent="1">
                    <mxGeometry x="60" y="280" width="120" height="60" as="geometry"/>
                </mxCell>
                <mxCell id="24" value="" style="edgeStyle=none;html=1;fontSize=18;" edge="1" parent="1" source="7" target="16">
                    <mxGeometry relative="1" as="geometry"/>
                </mxCell>
                <mxCell id="26" style="edgeStyle=none;html=1;fontSize=18;" edge="1" parent="1" source="7">
                    <mxGeometry relative="1" as="geometry">
                        <mxPoint x="380" y="160" as="targetPoint"/>
                    </mxGeometry>
                </mxCell>
                <mxCell id="7" value="商品管理" style="rounded=1;whiteSpace=wrap;html=1;arcSize=13;fillColor=#60a917;fontColor=#ffffff;strokeColor=#2D7600;" vertex="1" parent="1">
                    <mxGeometry x="230" y="200" width="120" height="32" as="geometry"/>
                </mxCell>
                <mxCell id="10" value="今日代办" style="rounded=1;whiteSpace=wrap;html=1;arcSize=13;fillColor=#60a917;fontColor=#ffffff;strokeColor=#2D7600;" vertex="1" parent="1">
                    <mxGeometry x="230" y="110" width="120" height="32" as="geometry"/>
                </mxCell>
                <mxCell id="27" style="edgeStyle=none;html=1;fontSize=18;" edge="1" parent="1" source="11">
                    <mxGeometry relative="1" as="geometry">
                        <mxPoint x="380" y="337" as="targetPoint"/>
                    </mxGeometry>
                </mxCell>
                <mxCell id="11" value="库存管理" style="rounded=1;whiteSpace=wrap;html=1;arcSize=13;fillColor=#60a917;fontColor=#ffffff;strokeColor=#2D7600;" vertex="1" parent="1">
                    <mxGeometry x="230" y="321" width="120" height="32" as="geometry"/>
                </mxCell>
                <mxCell id="28" style="edgeStyle=none;html=1;entryX=0;entryY=0.75;entryDx=0;entryDy=0;fontSize=18;" edge="1" parent="1" source="12" target="19">
                    <mxGeometry relative="1" as="geometry"/>
                </mxCell>
                <mxCell id="12" value="订单管理" style="rounded=1;whiteSpace=wrap;html=1;arcSize=13;fillColor=#60a917;fontColor=#ffffff;strokeColor=#2D7600;" vertex="1" parent="1">
                    <mxGeometry x="230" y="420" width="120" height="32" as="geometry"/>
                </mxCell>
                <mxCell id="29" style="edgeStyle=none;html=1;fontSize=18;" edge="1" parent="1" source="13">
                    <mxGeometry relative="1" as="geometry">
                        <mxPoint x="380" y="490" as="targetPoint"/>
                    </mxGeometry>
                </mxCell>
                <mxCell id="30" style="edgeStyle=none;html=1;fontSize=18;" edge="1" parent="1" source="13">
                    <mxGeometry relative="1" as="geometry">
                        <mxPoint x="380" y="530" as="targetPoint"/>
                    </mxGeometry>
                </mxCell>
                <mxCell id="13" value="网站管理" style="rounded=1;whiteSpace=wrap;html=1;arcSize=13;fillColor=#60a917;fontColor=#ffffff;strokeColor=#2D7600;" vertex="1" parent="1">
                    <mxGeometry x="230" y="483" width="120" height="32" as="geometry"/>
                </mxCell>
                <mxCell id="14" value="首页统计" style="rounded=1;whiteSpace=wrap;html=1;arcSize=13;fillColor=#e51400;fontColor=#ffffff;strokeColor=#B20000;" vertex="1" parent="1">
                    <mxGeometry x="230" y="50" width="120" height="32" as="geometry"/>
                </mxCell>
                <mxCell id="15" value="商品类别" style="rounded=1;whiteSpace=wrap;html=1;arcSize=13;fillColor=#f0a30a;fontColor=#000000;strokeColor=#BD7000;" vertex="1" parent="1">
                    <mxGeometry x="387" y="142" width="120" height="32" as="geometry"/>
                </mxCell>
                <mxCell id="16" value="商品录入" style="rounded=1;whiteSpace=wrap;html=1;arcSize=13;fillColor=#f0a30a;fontColor=#000000;strokeColor=#BD7000;" vertex="1" parent="1">
                    <mxGeometry x="387" y="200" width="120" height="32" as="geometry"/>
                </mxCell>
                <mxCell id="17" value="库存统计" style="rounded=1;whiteSpace=wrap;html=1;arcSize=13;fillColor=#f0a30a;fontColor=#000000;strokeColor=#BD7000;" vertex="1" parent="1">
                    <mxGeometry x="387" y="321" width="120" height="32" as="geometry"/>
                </mxCell>
                <mxCell id="19" value="销售录入" style="rounded=1;whiteSpace=wrap;html=1;arcSize=13;fillColor=#f0a30a;fontColor=#000000;strokeColor=#BD7000;" vertex="1" parent="1">
                    <mxGeometry x="387" y="400" width="120" height="32" as="geometry"/>
                </mxCell>
                <mxCell id="21" value="官网商品" style="rounded=1;whiteSpace=wrap;html=1;arcSize=13;fillColor=#f0a30a;fontColor=#000000;strokeColor=#BD7000;" vertex="1" parent="1">
                    <mxGeometry x="387" y="470" width="120" height="32" as="geometry"/>
                </mxCell>
                <mxCell id="22" value="手机展示商品" style="rounded=1;whiteSpace=wrap;html=1;arcSize=13;fillColor=#f0a30a;fontColor=#000000;strokeColor=#BD7000;" vertex="1" parent="1">
                    <mxGeometry x="387" y="515" width="120" height="32" as="geometry"/>
                </mxCell>
            </root>
        </mxGraphModel>
    </diagram>
</mxfile>